<?xml version="1.0" encoding="utf-8"?>
<!-- Generator: Adobe Illustrator 21.1.0, SVG Export Plug-In . SVG Version: 6.00 Build 0)  -->
<svg version="1.1" id="Capa_1" xmlns="http://www.w3.org/2000/svg" xmlns:xlink="http://www.w3.org/1999/xlink" x="0px" y="0px"
	 viewBox="0 0 475.1 475.1" style="enable-background:new 0 0 475.1 475.1;" xml:space="preserve">
<style type="text/css">
	.st0{fill:#7997AD;}
</style>
<g id="ubuntu">
	<g>
		<g>
			<path class="st0" d="M162.6,231.7c0-36.6,17.2-69.2,43.9-90.2l-40.9-65.4c-34.2,24.6-60,60.2-72.2,101.6
				c19,12.3,31.7,33.7,31.7,58c0,23.5-11.7,44.2-29.6,56.6c13.1,39.3,38.5,72.9,71.8,96.2l38-67.6
				C179.3,300,162.6,267.8,162.6,231.7z"/>
		</g>
	</g>
	<g>
		<path class="st0" d="M105.8,235.7c0,27.4-22.2,49.6-49.6,49.6c-27.4,0-49.6-22.2-49.6-49.6c0-27.4,22.2-49.6,49.6-49.6
			C83.5,186.2,105.8,208.4,105.8,235.7z"/>
	</g>
	<g>
		<g>
			<path class="st0" d="M384.2,355.6c11.5,0,22.4,2.8,31.9,7.8c29.7-31.3,48.9-72.6,52.1-118.4l-77-1.5
				c-5.9,57.8-54.7,102.7-114,102.7c-16.4,0-32.1-3.5-46.2-9.7l-38.3,67c25.5,12.6,54.2,19.6,84.5,19.6c13.1,0,25.9-1.3,38.3-3.8
				C318.1,383.7,347.9,355.6,384.2,355.6z"/>
		</g>
	</g>
	<g>
		<path class="st0" d="M433.7,424.5c0,27.4-22.2,49.6-49.6,49.6s-49.6-22.2-49.6-49.6c0-27.4,22.2-49.6,49.6-49.6
			C411.6,374.9,433.7,397.1,433.7,424.5z"/>
	</g>
	<g>
		<g>
			<path class="st0" d="M421.4,105.8c-11.2,7.9-24.9,12.6-39.8,12.6c-38.1,0-68.9-30.8-68.9-68.9c0-2,0.1-4,0.2-5.9
				c-11.6-2.2-23.5-3.4-35.8-3.4c-30.6,0-59.6,7.2-85.2,20l38.1,67c14.4-6.5,30.4-10.1,47.2-10.1c58.8,0,107.2,44.3,113.8,101.3
				l77-2.4C464.6,174,447.6,135.8,421.4,105.8z"/>
		</g>
	</g>
	<g>
		<path class="st0" d="M431.2,49.6c0,27.4-22.1,49.6-49.5,49.6C354.2,99.1,332,77,332,49.6C332,22.2,354.2,0,381.6,0
			C409,0,431.2,22.2,431.2,49.6z"/>
	</g>
</g>
</svg>
