<?xml version="1.0" encoding="utf-8"?>
<!-- Generator: Adobe Illustrator 21.1.0, SVG Export Plug-In . SVG Version: 6.00 Build 0)  -->
<svg version="1.1" id="Capa_1" xmlns="http://www.w3.org/2000/svg" xmlns:xlink="http://www.w3.org/1999/xlink" x="0px" y="0px"
	 viewBox="0 0 475.1 475.1" style="enable-background:new 0 0 475.1 475.1;" xml:space="preserve">
<style type="text/css">
	.st0{fill:#7997AD;}
</style>
<path class="st0" d="M201,108.3c-5.1,0.5-3.4,5.3-6.2,5.4C192,113.8,192.6,107.7,201,108.3z M216.5,109.1c5-1.3,5,3.7,7.7,2.8
	C226.8,111,224.1,105.5,216.5,109.1z M388.1,437.5c-15.4,7.7-35.4,24.9-42.9,32c-5.5,5.3-28.6,7.9-41.5,1.3
	c-15.2-7.8-7.1-20.1-30.6-20.6c-11.7-0.3-23-0.4-34.4-0.2c-10.1,0.1-20.1,0.4-30.4,1c-35.3,0.3-38.7,23.4-61.2,22.5
	c-15.4-0.6-34.8-12.7-68.1-19.7c-23.4-4.9-45.9-6-50.7-16.4c-4.8-10.3,5.9-21.9,6.7-32.2c0.9-13.4-10.2-31.7-2-38.8
	c6.7-5.9,21.5-1.6,31-6.9c10.1-5.6,14.2-10.3,14.2-22.6c3.7,12.6-0.2,23-8.5,28.2c-5,3-14.2,4.6-21.9,3.8c-6-0.6-9.8,0.4-11.6,2.7
	c-2.3,3-1.6,8.2,1.4,15.2c3,6.9,6.5,11.4,6,19.9c-0.5,8.5-9.8,18.6-8.3,25.8c0.6,2.7,3.3,5,9.8,6.9c10.7,3,29.9,5.8,48.8,10.4
	c21,5.2,42.8,14.9,56.3,13c40.4-5.6,17.3-48.9,10.8-59.2c-34.1-53.6-56.6-88.7-74.6-74.8c-4.7,3.6-4.9-9.1-4.7-14
	c0.8-17.6,9.7-23.8,15.1-37.5c10-25.7,17.7-55.1,33.1-70.3c11.5-14.7,29.4-38.8,32.8-51.6c-2.9-27.7-3.8-56.9-4.2-82.5
	c-0.4-27.2,3.9-51,34.6-67.7c7.5-4.1,17.2-5.6,27.5-5.7c18.4-0.2,38.8,5,51.7,14.6c20.7,15.3,33.7,48,32.2,71.5
	c-1.2,18.1,2,37,7.8,56.5c6.9,23.1,17.9,39.4,35.4,57.9c21,22.3,37.4,66.2,42,94.1c4.3,26-1.3,42.1-7,42.9
	c-8.5,1.3-13.8,28.2-40.4,27c-17-0.8-18.6-10.8-23.3-19.4c-7.6-13.7-15.3-9.4-18.3,4.9c-1.6,7.3-0.4,17.7,1.9,25.9
	c4.7,16.6,3.1,32.4,0.3,51.6c-5.4,36.7,25.7,43.7,46.7,26.2c20.7-17.2,25.1-20,51.3-28.9c39.5-13.5,26.2-25.5,5-32.6
	c-19-6.4-19.8-38.6-13-44.7c1.5,34.6,19.5,39.6,27.1,44.3C452.3,411.2,407.2,427.8,388.1,437.5z M300.1,336.2
	c3.6-4.3,7.8-4.7,13.4-4.9c0.9-21.1,33.7-19.5,44.4-10.7c0-4.9-10.3-9.3-14.4-11.3c7.2-23.8,3.8-33.3-0.9-55.8
	c-3.6-17.1-19.2-40.2-31.5-47.4c3.1,2.7,9,10.6,15.2,22.1c10.7,19.9,21.2,49.3,14.2,73.9c-2.7,9.4-8.9,10.6-13.1,11.1
	c-18.8,2-7.8-22.2-15.6-55.6c-8.7-37-17.6-39.8-19.9-42.7c-10.8-48.2-22.8-43.4-26.2-61.6c-3-16.1,14-29.4-9.2-33.9
	c-7.1-1.4-17.2-8.6-21.2-9.1c-4-0.5-6-26.6,8.7-27.6c14.7-1.1,17.5,16.6,14.6,23.5c-4.2,6.9,0.3,9.5,7.6,7.2
	c5.9-1.8,2.1-17.3,3.5-19.6c-3.8-22.1-13.1-25.3-22.7-27.2c-36.5,2.8-20.1,43.3-23.8,39.4c-5.2-5.5-20.7-0.3-20.7-3.8
	c0.3-20.6-6.6-32.6-16.1-32.8c-10.6-0.3-15,14.5-15.6,22.9c-0.6,8,4.8,24.8,8.7,23.5c2.6-0.9,7-6,2.3-6c-2.4,0-6.1-5.7-6.5-12.6
	c-0.4-6.9,2.2-13.9,11.2-13.6c10.6,0.4,10.5,21.1,9.3,21.9c-3.4,2.3-7.7,6.9-8.2,7.7c-3.4,5.6-10.1,7-12.6,9.5
	c-4.7,4.7-5.7,10-2.1,12.1c12.1,6.9,8.2,14.7,25.1,15.4c11.1,0.4,19.5-1.7,27-4c5.9-1.8,24.8-5.8,28.8-12.8c1.7-3,3.9-3.1,5.4-2.2
	c2.5,1.5,3.1,6.4-3.5,8.1c-9.4,2.5-18.8,7.5-27.1,10.8c-8.3,3.4-10.9,4.6-18.7,6.1c-17.6,3.1-30.5-6.3-18.7,5
	c3.9,3.8,7.7,6.2,17.8,5.8c22.1-0.9,46.9-27.4,49.4-15.6c0.5,2.4-7,5.8-12.9,8.7c-20.7,10.2-35.4,30.4-48.6,23.4
	c-11.9-6.3-23.7-35.8-23.5-22.5c0.3,20.4-26.9,38.5-14.3,61.7c-8.1,2.2-26.6,41.2-29.2,61.5c-1.4,11.5,1.1,25.9-1.7,34
	c-4,11.7-22.2-11.1-16.4-39c1-4.9,0.2-6-1.2-3.6c-7.4,13-3.3,31.2,2.5,44c2.6,5.5,8.5,8,12.9,12.9c9.5,10.6,45.9,37.6,52.5,44.1
	c8,7.9,5.8,25.9-11.2,27.6c8.7,16.4,17.2,18,17.1,44.9c9.9-5.3,5.9-16.9,1.8-24.5c-2.9-5.2-6.7-7.6-5.8-8.8c0.6-0.9,5.7-5.3,8.7-1.9
	c9,10.1,25.9,11.9,44.2,9.6c18.2-2.3,37.7-8.7,46.7-23.2c4.2-6.8,7.3-9.2,9.2-8c1.9,1.2,2.8,6,2.6,13.8c-0.2,8.6-3.8,17.5-6.1,24.6
	c-2.5,8.1-3.3,13.8,4.6,14.1c2.3-14.9,6.4-29.6,7.6-44.4C299.1,383.3,286.9,351.9,300.1,336.2z M188.6,96.6
	c-0.6,3.3-0.4,5.4,1.9,5.4c0.4,0,0.8-0.1,0.9-0.9c1.1-6.6-2.3-11.4-3.7-11.8c-3.2-0.8-2.8,3.8-1.2,3.5
	C187.6,92.5,189,94.2,188.6,96.6z M248.6,87.5c-3.3,0.3-2.4,2-0.7,2.4c2.2,0.6,4.2,4.3,4.7,8.3c0,0.4,2.8-0.6,2.8-1.5
	C255.6,90.4,250.1,87.4,248.6,87.5z"/>
</svg>
