<?xml version="1.0" encoding="utf-8"?>
<!-- Generator: Adobe Illustrator 21.1.0, SVG Export Plug-In . SVG Version: 6.00 Build 0)  -->
<svg version="1.1" id="Capa_1" xmlns="http://www.w3.org/2000/svg" xmlns:xlink="http://www.w3.org/1999/xlink" x="0px" y="0px"
	 viewBox="0 0 15 15" style="enable-background:new 0 0 15 15;" xml:space="preserve">
<style type="text/css">
	.st0{fill:#B0C0CA;stroke:#B0C0CA;stroke-width:0.45;stroke-miterlimit:10;}
</style>
<g>
	<path class="st0" d="M13.5,4h-2l-1-2.4H4.5L3.5,4H3.2V2.8H1.7V4H1.5C0.8,4,0.3,4.5,0.3,5.2v7c0,0.6,0.5,1.2,1.2,1.2h12.1
		c0.6,0,1.2-0.5,1.2-1.2v-7C14.7,4.5,14.2,4,13.5,4z M2.2,3.3h0.5V4H2.2V3.3z M14.2,12.2c0,0.4-0.3,0.7-0.7,0.7H1.5
		c-0.4,0-0.7-0.3-0.7-0.7v-7c0-0.4,0.3-0.7,0.7-0.7h0.3h1.4h0.6l1-2.4h5.4l1,2.4h2.4c0.4,0,0.7,0.3,0.7,0.7
		C14.2,5.2,14.2,12.2,14.2,12.2z"/>
	<path class="st0" d="M7.5,3.8c-2.4,0-4.3,1.9-4.3,4.3s1.9,4.3,4.3,4.3s4.3-1.9,4.3-4.3S9.9,3.8,7.5,3.8z M7.5,11.9
		c-2.1,0-3.8-1.7-3.8-3.8s1.7-3.8,3.8-3.8s3.8,1.7,3.8,3.8S9.6,11.9,7.5,11.9z"/>
	<path class="st0" d="M7.5,5.2c-1.6,0-2.9,1.3-2.9,2.9S5.9,11,7.5,11s2.9-1.3,2.9-2.9S9.1,5.2,7.5,5.2z M7.5,10.5
		c-1.3,0-2.4-1.1-2.4-2.4s1.1-2.4,2.4-2.4s2.4,1.1,2.4,2.4S8.8,10.5,7.5,10.5z"/>
	<path class="st0" d="M12.8,5c-0.5,0-1,0.4-1,1s0.4,1,1,1s1-0.4,1-1S13.3,5,12.8,5z M12.8,6.4c-0.3,0-0.5-0.2-0.5-0.5
		c0-0.3,0.2-0.5,0.5-0.5s0.5,0.2,0.5,0.5C13.3,6.2,13,6.4,12.8,6.4z"/>
</g>
</svg>
