<?xml version="1.0" encoding="utf-8"?>
<!-- Generator: Adobe Illustrator 21.1.0, SVG Export Plug-In . SVG Version: 6.00 Build 0)  -->
<svg version="1.1" id="Capa_1" xmlns="http://www.w3.org/2000/svg" xmlns:xlink="http://www.w3.org/1999/xlink" x="0px" y="0px"
	 viewBox="0 0 475.1 475.1" style="enable-background:new 0 0 475.1 475.1;" xml:space="preserve">
<style type="text/css">
	.st0{fill:#7997AD;}
</style>
<g id="g7898" transform="matrix(1.0193461,0,0,1.0193461,242.03416,-717.78373)">
	<path id="path123" class="st0" d="M217.4,725.1c24.2,24.2-42.9,130.7-54.3,142.1c-11.4,11.3-40.2,0.9-64.4-23.3
		c-24.2-24.2-34.7-53.1-23.3-64.4C86.7,768.1,193.2,700.9,217.4,725.1z"/>
	<path id="path125" class="st0" d="M-122.4,750.7c-37-21-89.6-44.3-106.4-27.6c-17,17,7.2,70.8,28.4,107.9
		C-181.5,798.2-154.6,770.6-122.4,750.7L-122.4,750.7z"/>
	<path id="path127" class="st0" d="M180.5,858.8c3.4,11.6,2.8,21.1-2.7,26.6c-12.9,12.9-47.8-0.8-79.2-30.7c-2.2-2-4.4-4-6.5-6.1
		c-11.4-11.4-20.2-23.5-25.9-34.6c-11-19.7-13.8-37.2-5.4-45.5c4.5-4.5,11.8-5.8,20.6-4.2c5.8-3.6,12.6-7.7,20.1-11.9
		c-30.4-15.8-64.9-24.8-101.5-24.8c-121.5,0-220,98.5-220,220c0,121.5,98.5,220,220,220c121.5,0,220-98.5,220-220
		c0-39.2-10.3-76-28.3-107.9C187.7,846.7,183.9,853.2,180.5,858.8L180.5,858.8z"/>
</g>
</svg>
