<?xml version="1.0" encoding="utf-8"?>
<!-- Generator: Adobe Illustrator 21.1.0, SVG Export Plug-In . SVG Version: 6.00 Build 0)  -->
<svg version="1.1" id="Capa_1" xmlns="http://www.w3.org/2000/svg" xmlns:xlink="http://www.w3.org/1999/xlink" x="0px" y="0px"
	 viewBox="0 0 475.1 475.1" style="enable-background:new 0 0 475.1 475.1;" xml:space="preserve">
<style type="text/css">
	.st0{fill:#7997AD;}
</style>
<g>
	<path class="st0" d="M274.4,250.5c-7.8,0.1,1.5,4,11.6,5.6c2.8-2.2,5.4-4.4,7.6-6.6C287.3,251.1,280.9,251.1,274.4,250.5"/>
	<path class="st0" d="M316.2,240.1c4.6-6.4,8-13.4,9.2-20.7c-1,5.2-3.8,9.6-6.5,14.3c-14.6,9.2-1.4-5.4,0-11
		C303.2,242.5,316.7,234.6,316.2,240.1"/>
	<path class="st0" d="M331.6,200c0.9-14-2.8-9.6-4-4.2C329.1,196.5,330.2,205.6,331.6,200"/>
	<path class="st0" d="M244.8,8.2c4.2,0.7,9,1.3,8.3,2.3C257.7,9.5,258.7,8.6,244.8,8.2"/>
	<path class="st0" d="M253.1,10.5l-2.9,0.6l2.7-0.2L253.1,10.5"/>
	<path class="st0" d="M382.8,205.3c0.5,12.6-3.7,18.7-7.4,29.5l-6.7,3.4c-5.5,10.7,0.5,6.8-3.4,15.3c-8.6,7.6-26.1,23.9-31.7,25.4
		c-4.1-0.1,2.8-4.8,3.7-6.7c-11.5,7.9-9.2,11.9-26.9,16.7l-0.5-1.1c-43.4,20.4-103.8-20.1-103-75.3c-0.5,3.5-1.3,2.6-2.3,4
		c-2.2-28.4,13.1-57,39.1-68.6c25.4-12.6,55.1-7.4,73.2,9.5c-10-13.1-29.8-26.9-53.4-25.6c-23.1,0.4-44.6,15-51.8,30.9
		c-11.8,7.4-13.2,28.7-18.3,32.6c-6.9,50.9,13,72.9,46.8,98.7c5.3,3.6,1.5,4.1,2.2,6.9c-11.2-5.3-21.5-13.2-29.9-22.9
		c4.5,6.6,9.3,12.9,15.6,17.9c-10.6-3.6-24.7-25.6-28.8-26.5c18.2,32.6,73.9,57.2,103.1,45c-13.5,0.5-30.6,0.3-45.8-5.3
		c-6.4-3.3-15-10.1-13.5-11.3c39.8,14.9,80.9,11.3,115.4-16.4c8.8-6.8,18.3-18.4,21.1-18.6c-4.2,6.3,0.7,3-2.5,8.5
		c8.7-14.1-3.8-5.7,9-24.3l4.7,6.5c-1.8-11.7,14.5-25.9,12.9-44.4c3.7-5.7,4.2,6.1,0.2,19.1c5.5-14.4,1.4-16.7,2.9-28.7
		c1.5,4,3.5,8.3,4.6,12.5c-3.6-13.9,3.7-23.5,5.5-31.6c-1.8-0.8-5.5,6.2-6.4-10.3c0.1-7.2,2-3.8,2.7-5.5c-1.4-0.8-5.1-6.3-7.3-16.8
		c1.6-2.5,4.3,6.4,6.6,6.8c-1.4-8.4-3.9-14.7-4-21.2c-6.5-13.5-2.3,1.8-7.5-5.8c-6.9-21.5,5.7-5,6.6-14.7
		c10.4,15.1,16.4,38.5,19.1,48.2c-2.1-11.8-5.4-23.3-9.6-34.3c3.2,1.3-5.1-24.3,4.1-7.3c-9.8-36.2-42.1-70.1-71.8-85.9
		c3.6,3.3,8.2,7.5,6.6,8.2c-14.8-8.8-12.2-9.5-14.3-13.2c-12-4.9-12.8,0.4-20.8,0c-22.7-12-27-10.7-47.9-18.3l0.9,4.4
		c-15-5-17.5,1.9-33.7,0c-1-0.8,5.2-2.8,10.3-3.5c-14.5,1.9-13.8-2.9-28.1,0.5c3.5-2.5,7.2-4.1,10.9-6.2
		c-11.8,0.7-28.3,6.9-23.2,1.3c-19.3,8.6-53.6,20.7-72.9,38.8l-0.6-4c-8.8,10.6-38.5,31.6-40.8,45.4l-2.4,0.6
		C88.6,95.1,85.6,104,82,112c-6,10.2-8.8,3.9-7.9,5.5c-11.8,23.9-17.7,44.1-22.7,60.6c3.6,5.4,0.1,32.5,1.5,54.2
		c-5.9,107.1,75.2,211.1,163.8,235.1c13,4.6,32.3,4.5,48.8,4.9c-19.4-5.5-21.9-2.9-40.8-9.5c-13.6-6.4-16.6-13.7-26.3-22.1l3.8,6.8
		c-18.9-6.7-11-8.3-26.4-13.2l4.1-5.3c-6.1-0.5-16.3-10.3-19-15.8l-6.7,0.3c-8.1-10-12.4-17.1-12-22.7l-2.2,3.9
		c-2.5-4.2-29.7-37.3-15.6-29.6c-2.6-2.4-6.1-3.9-9.9-10.8l2.9-3.3c-6.8-8.7-12.5-19.9-12.1-23.7c3.6,4.9,6.1,5.8,8.6,6.6
		c-17.2-42.6-18.1-2.3-31.1-43.3l2.7-0.2c-2.1-3.2-3.4-6.6-5.1-10l1.2-11.9c-12.4-14.3-3.5-60.7-1.7-86.2
		c1.2-10.4,10.3-21.4,17.2-38.7l-4.2-0.7c8-14,45.9-56.3,63.4-54.1c8.5-10.7-1.7,0-3.3-2.7c18.7-19.3,24.5-13.6,37.1-17.1
		c13.6-8.1-11.7,3.1-5.2-3.1c23.5-6,16.6-13.6,47.3-16.7c3.2,1.8-7.5,2.8-10.2,5.2c19.6-9.6,61.9-7.4,89.4,5.3
		c31.9,14.9,67.8,59,69.2,100.5l1.6,0.4c-0.8,16.5,2.5,35.6-3.3,53.1L382.8,205.3"/>
	<path class="st0" d="M189.3,261.2l-1.1,5.5c5.1,7,9.2,14.5,15.7,19.9C199.2,277.5,195.7,273.7,189.3,261.2"/>
	<path class="st0" d="M201.4,260.8c-2.7-3-4.3-6.6-6.1-10.2c1.7,6.3,5.2,11.7,8.5,17.3L201.4,260.8"/>
	<path class="st0" d="M415.6,214.2l-1.1,2.9c-2.1,14.9-6.6,29.7-13.6,43.3C408.6,246,413.6,230.2,415.6,214.2"/>
	<path class="st0" d="M246.4,4.4c5.3-1.9,13-1.1,18.5-2.3c-7.3,0.6-14.5,1-21.7,1.9L246.4,4.4"/>
	<path class="st0" d="M61.4,102.8c1.2,11.2-8.5,15.6,2.1,8.2C69.2,98.2,61.3,107.4,61.4,102.8"/>
	<path class="st0" d="M49,154.8c2.4-7.5,2.9-12,3.8-16.3C46,147.1,49.7,148.9,49,154.8"/>
</g>
</svg>
