<?xml version="1.0" encoding="utf-8"?>
<!-- Generator: Adobe Illustrator 21.1.0, SVG Export Plug-In . SVG Version: 6.00 Build 0)  -->
<svg version="1.1" id="Layer_1" xmlns="http://www.w3.org/2000/svg" xmlns:xlink="http://www.w3.org/1999/xlink" x="0px" y="0px"
	 viewBox="0 0 430.4 171" style="enable-background:new 0 0 430.4 171;" xml:space="preserve">
<style type="text/css">
	.st0{fill:#FFFFFF;}
</style>
<title>Klikk logo Basic RGB White Color</title>
<path class="st0" d="M29.1,99.1l41.3-45.4H108L57.5,108l53.9,60.7H73l-43.9-50.2v50.3H0V0h29.1V99.1z"/>
<path class="st0" d="M121.9,0H151v168.7h-29.1V0z"/>
<path class="st0" d="M183.7,55.9h29.1V169h-29.1V55.9z M212.8,29.4h-29.1V0.3h29.1V29.4z"/>
<path class="st0" d="M274,99.4L315.3,54h37.6l-50.5,54.4l53.9,60.6H318L274,118.8V169h-29.1V0.3H274V99.4z"/>
<path class="st0" d="M339.4,108.6l49.9-54.9H427L376.5,108l53.9,60.7H392L339.4,108.6z"/>
</svg>
